# xmcd
# 
# Track frame offsets:
#     150
#     20535
#     39723
#     72465
#     90090
#     108438
#     128338
#     156098
#     182330
#     200210
# 
# Disc length: 2922
# 
# Revision: 0
# Processed by: cddbd v1.5.2PL0 Copyright (c) Steve Scherf et al.
# Submitted via: BonkEnc v1.0.8
# 
DISCID=7b0b680a
DTITLE=Bluesgangsters - Watch out
DYEAR=1992
DGENRE=Blues
TTITLE0=Keep on playin´my blues
TTITLE1=That keeps you alive
TTITLE2=They have to pay
TTITLE3=Cryin´ ain´t no shame
TTITLE4=I´ve been waiting
TTITLE5=Cadillac baby
TTITLE6=Set my heart on fire
TTITLE7=Keep on riding on
TTITLE8=Too much
TTITLE9=Michigan Avenue
EXTD=
EXTT0=
EXTT1=
EXTT2=
EXTT3=
EXTT4=
EXTT5=
EXTT6=
EXTT7=
EXTT8=
EXTT9=
PLAYORDER=
